<svg width="20" height="24" viewBox="0 0 20 24" fill="none" xmlns="http://www.w3.org/2000/svg">
<path d="M10 12C10.6875 12 11.2763 11.7648 11.7663 11.2944C12.2554 10.8248 12.5 10.26 12.5 9.6C12.5 8.94 12.2554 8.3748 11.7663 7.9044C11.2763 7.4348 10.6875 7.2 10 7.2C9.3125 7.2 8.72417 7.4348 8.235 7.9044C7.745 8.3748 7.5 8.94 7.5 9.6C7.5 10.26 7.745 10.8248 8.235 11.2944C8.72417 11.7648 9.3125 12 10 12ZM10 20.82C12.5417 18.58 14.4271 16.5448 15.6562 14.7144C16.8854 12.8848 17.5 11.26 17.5 9.84C17.5 7.66 16.7758 5.8748 15.3275 4.4844C13.88 3.0948 12.1042 2.4 10 2.4C7.89583 2.4 6.11958 3.0948 4.67125 4.4844C3.22375 5.8748 2.5 7.66 2.5 9.84C2.5 11.26 3.11458 12.8848 4.34375 14.7144C5.57292 16.5448 7.45833 18.58 10 20.82ZM10 24C6.64583 21.26 4.14083 18.7148 2.485 16.3644C0.828333 14.0148 0 11.84 0 9.84C0 6.84 1.00542 4.45 3.01625 2.67C5.02625 0.89 7.35417 0 10 0C12.6458 0 14.9737 0.89 16.9837 2.67C18.9946 4.45 20 6.84 20 9.84C20 11.84 19.1721 14.0148 17.5163 16.3644C15.8596 18.7148 13.3542 21.26 10 24Z" fill="black" fill-opacity="0.5"/>
</svg>
