<svg width="35" height="35" viewBox="0 0 35 35" fill="none" xmlns="http://www.w3.org/2000/svg">
<path d="M34.6875 34.0953V32.0953C34.6875 30.504 34.0554 28.9779 32.9301 27.8527C31.8049 26.7275 30.2788 26.0953 28.6875 26.0953H14.6875C13.0962 26.0953 11.5701 26.7275 10.4449 27.8527C9.31964 28.9779 8.6875 30.504 8.6875 32.0953V34.0953H34.6875Z" fill="#FA743E"/>
<path d="M25.5913 0.357344C23.5713 -0.295656 18.8193 -0.117656 17.6313 1.42634C14.5423 1.48534 10.9183 4.27734 10.4433 7.96134C9.97328 11.6063 11.0213 13.2993 11.3943 16.0403C11.8163 19.1463 13.5623 20.1393 14.9583 20.5553C16.9663 23.2093 19.1013 23.0953 22.6853 23.0953C29.6853 23.0953 33.0193 18.4113 33.3143 10.4563C33.4923 5.64434 30.6693 2.00034 25.5913 0.357344Z" fill="#292F33"/>
<path d="M18.6855 21.0953V27.0953C18.6855 27.4893 18.7631 27.8794 18.9139 28.2434C19.0647 28.6074 19.2857 28.9381 19.5642 29.2167C19.8428 29.4952 20.1735 29.7162 20.5375 29.867C20.9015 30.0177 21.2916 30.0953 21.6855 30.0953C22.0795 30.0953 22.4696 30.0177 22.8336 29.867C23.1976 29.7162 23.5283 29.4952 23.8069 29.2167C24.0854 28.9381 24.3064 28.6074 24.4572 28.2434C24.6079 27.8794 24.6855 27.4893 24.6855 27.0953V21.0953H18.6855Z" fill="#F7DECE"/>
<path d="M18.2051 24.0903C19.2631 25.2973 20.2541 25.6003 21.6821 25.6003C23.1081 25.6003 24.1081 25.2963 25.1671 24.0903V20.5753H18.2061V24.0903H18.2051Z" fill="#EEC2AD"/>
<path d="M29.5943 10.7964C28.9173 9.85836 28.0493 9.10336 26.1483 8.83636C26.8613 9.16336 27.5443 10.2914 27.6333 10.9154C27.7223 11.5394 27.8113 12.0444 27.2473 11.4204C24.9863 8.92136 22.5243 9.90536 20.0843 8.37936C18.3803 7.31336 17.8613 6.13336 17.8613 6.13336C17.8613 6.13336 17.6533 7.70736 15.0693 9.31136C14.3203 9.77636 13.4263 10.8114 12.9303 12.3414C12.5743 13.4404 12.6853 14.4204 12.6853 16.0954C12.6853 20.9844 16.7143 25.0954 21.6853 25.0954C26.6563 25.0954 30.6853 20.9484 30.6853 16.0954C30.6853 13.0544 30.3663 11.8664 29.5943 10.7964Z" fill="#F7DECE"/>
<path d="M21.6872 21.8974C18.9332 21.8974 18.0872 21.1924 17.9462 21.0494C17.8838 20.9901 17.8337 20.9192 17.7987 20.8406C17.7638 20.762 17.7446 20.6773 17.7424 20.5913C17.7379 20.4177 17.8026 20.2493 17.9222 20.1234C18.0418 19.9974 18.2066 19.9241 18.3802 19.9196C18.5539 19.9151 18.7222 19.9797 18.8482 20.0994C18.9002 20.1364 19.5692 20.5864 21.6872 20.5864C23.8872 20.5864 24.5232 20.1014 24.5292 20.0964C24.5896 20.0365 24.6614 19.9892 24.7403 19.9575C24.8193 19.9258 24.9038 19.9101 24.9888 19.9115C25.0739 19.9129 25.1579 19.9313 25.2357 19.9656C25.3136 20 25.3838 20.0495 25.4422 20.1114C25.5633 20.2383 25.6298 20.4078 25.6271 20.5832C25.6245 20.7587 25.5531 20.9261 25.4282 21.0494C25.2872 21.1924 24.4412 21.8974 21.6872 21.8974Z" fill="#C1694F"/>
<path d="M22.6855 18.5953H20.6855C20.5529 18.5953 20.4258 18.5427 20.332 18.4489C20.2382 18.3551 20.1855 18.2279 20.1855 18.0953C20.1855 17.9627 20.2382 17.8356 20.332 17.7418C20.4258 17.648 20.5529 17.5953 20.6855 17.5953H22.6855C22.8182 17.5953 22.9453 17.648 23.0391 17.7418C23.1329 17.8356 23.1855 17.9627 23.1855 18.0953C23.1855 18.2279 23.1329 18.3551 23.0391 18.4489C22.9453 18.5427 22.8182 18.5953 22.6855 18.5953Z" fill="#C1694F"/>
<path d="M7.6875 26.6533V34.0953H8.6875L8.9905 26.6533H7.6875Z" fill="#DD551F"/>
<path d="M4.0205 26.1483L2.6875 34.0953H7.6875L8.4085 26.5073L4.0205 26.1483Z" fill="#FA743E"/>
<path d="M6.47493 20.3534C7.39793 19.4304 10.0329 17.3894 10.6899 16.7164C11.3479 16.0444 12.2199 16.8134 11.7579 17.6344C11.2959 18.4554 8.62893 21.4814 8.62893 21.4814C8.62893 21.4814 10.2189 21.9434 10.5779 22.3534C10.9369 22.7634 11.6039 25.4314 10.9879 25.8414C10.3719 26.2514 9.44893 25.9444 9.44893 25.9444C9.44893 25.9444 8.47593 28.3554 5.96193 28.2014C4.91793 28.1374 3.85893 27.2264 3.96093 25.6874C4.06393 24.1484 4.86493 22.7184 5.14093 21.8914C5.44893 20.9684 6.47493 20.3534 6.47493 20.3534Z" fill="#F7DECE"/>
<path d="M5.7887 18.8003C5.73929 18.8002 5.69015 18.7931 5.6427 18.7793C3.2137 18.0393 2.7837 15.2153 2.7667 15.0953C2.75305 14.9667 2.78976 14.8378 2.86913 14.7357C2.9485 14.6336 3.06435 14.5662 3.19235 14.5477C3.32036 14.5292 3.45055 14.561 3.5556 14.6364C3.66064 14.7119 3.73237 14.8251 3.7557 14.9523C3.7587 14.9753 4.1177 17.2683 5.9337 17.8213C6.04753 17.857 6.14488 17.9322 6.20823 18.0333C6.27159 18.1344 6.29679 18.2547 6.27932 18.3728C6.26184 18.4908 6.20282 18.5987 6.11288 18.6771C6.02295 18.7554 5.90799 18.7991 5.7887 18.8003ZM4.7117 20.8123C4.66155 20.8124 4.61167 20.805 4.5637 20.7903C1.0067 19.6883 0.0517002 15.6813 0.0127002 15.5113C-0.00200784 15.4473 -0.0039623 15.381 0.0069484 15.3162C0.0178591 15.2515 0.0414213 15.1895 0.0762897 15.1338C0.111158 15.0781 0.15665 15.0299 0.210168 14.9918C0.263685 14.9537 0.324181 14.9265 0.3882 14.9118C0.45222 14.8971 0.518509 14.8952 0.583284 14.9061C0.648059 14.917 0.71005 14.9406 0.765719 14.9754C0.821388 15.0103 0.869643 15.0558 0.907731 15.1093C0.945819 15.1628 0.972992 15.2233 0.9877 15.2873C0.9957 15.3233 1.8597 18.9053 4.8607 19.8353C4.9746 19.8711 5.07193 19.9465 5.13509 20.0478C5.19826 20.1491 5.22308 20.2697 5.20508 20.3877C5.18708 20.5057 5.12745 20.6134 5.03695 20.6913C4.94646 20.7692 4.83109 20.8121 4.7117 20.8123Z" fill="#5DADEC"/>
<path d="M34.6875 34.0953V32.0953C34.6875 30.504 34.0554 28.9779 32.9301 27.8527C31.8049 26.7275 30.2788 26.0953 28.6875 26.0953H14.6875C13.0962 26.0953 11.5701 26.7275 10.4449 27.8527C9.31964 28.9779 8.6875 30.504 8.6875 32.0953V34.0953H34.6875Z" fill="#FA743E"/>
<path d="M25.5913 0.357344C23.5713 -0.295656 18.8193 -0.117656 17.6313 1.42634C14.5423 1.48534 10.9183 4.27734 10.4433 7.96134C9.97328 11.6063 11.0213 13.2993 11.3943 16.0403C11.8163 19.1463 13.5623 20.1393 14.9583 20.5553C16.9663 23.2093 19.1013 23.0953 22.6853 23.0953C29.6853 23.0953 33.0193 18.4113 33.3143 10.4563C33.4923 5.64434 30.6693 2.00034 25.5913 0.357344Z" fill="#292F33"/>
<path d="M18.6855 21.0953V27.0953C18.6855 27.4893 18.7631 27.8794 18.9139 28.2434C19.0647 28.6074 19.2857 28.9381 19.5642 29.2167C19.8428 29.4952 20.1735 29.7162 20.5375 29.867C20.9015 30.0177 21.2916 30.0953 21.6855 30.0953C22.0795 30.0953 22.4696 30.0177 22.8336 29.867C23.1976 29.7162 23.5283 29.4952 23.8069 29.2167C24.0854 28.9381 24.3064 28.6074 24.4572 28.2434C24.6079 27.8794 24.6855 27.4893 24.6855 27.0953V21.0953H18.6855Z" fill="#F7DECE"/>
<path d="M18.2051 24.0903C19.2631 25.2973 20.2541 25.6003 21.6821 25.6003C23.1081 25.6003 24.1081 25.2963 25.1671 24.0903V20.5753H18.2061V24.0903H18.2051Z" fill="#EEC2AD"/>
<path d="M29.5943 10.7964C28.9173 9.85836 28.0493 9.10336 26.1483 8.83636C26.8613 9.16336 27.5443 10.2914 27.6333 10.9154C27.7223 11.5394 27.8113 12.0444 27.2473 11.4204C24.9863 8.92136 22.5243 9.90536 20.0843 8.37936C18.3803 7.31336 17.8613 6.13336 17.8613 6.13336C17.8613 6.13336 17.6533 7.70736 15.0693 9.31136C14.3203 9.77636 13.4263 10.8114 12.9303 12.3414C12.5743 13.4404 12.6853 14.4204 12.6853 16.0954C12.6853 20.9844 16.7143 25.0954 21.6853 25.0954C26.6563 25.0954 30.6853 20.9484 30.6853 16.0954C30.6853 13.0544 30.3663 11.8664 29.5943 10.7964Z" fill="#F7DECE"/>
<path d="M21.6872 21.8974C18.9332 21.8974 18.0872 21.1924 17.9462 21.0494C17.8838 20.9901 17.8337 20.9192 17.7987 20.8406C17.7638 20.762 17.7446 20.6773 17.7424 20.5913C17.7379 20.4177 17.8026 20.2493 17.9222 20.1234C18.0418 19.9974 18.2066 19.9241 18.3802 19.9196C18.5539 19.9151 18.7222 19.9797 18.8482 20.0994C18.9002 20.1364 19.5692 20.5864 21.6872 20.5864C23.8872 20.5864 24.5232 20.1014 24.5292 20.0964C24.5896 20.0365 24.6614 19.9892 24.7403 19.9575C24.8193 19.9258 24.9038 19.9101 24.9888 19.9115C25.0739 19.9129 25.1579 19.9313 25.2357 19.9656C25.3136 20 25.3838 20.0495 25.4422 20.1114C25.5633 20.2383 25.6298 20.4078 25.6271 20.5832C25.6245 20.7587 25.5531 20.9261 25.4282 21.0494C25.2872 21.1924 24.4412 21.8974 21.6872 21.8974Z" fill="#C1694F"/>
<path d="M22.6855 18.5953H20.6855C20.5529 18.5953 20.4258 18.5427 20.332 18.4489C20.2382 18.3551 20.1855 18.2279 20.1855 18.0953C20.1855 17.9627 20.2382 17.8356 20.332 17.7418C20.4258 17.648 20.5529 17.5953 20.6855 17.5953H22.6855C22.8182 17.5953 22.9453 17.648 23.0391 17.7418C23.1329 17.8356 23.1855 17.9627 23.1855 18.0953C23.1855 18.2279 23.1329 18.3551 23.0391 18.4489C22.9453 18.5427 22.8182 18.5953 22.6855 18.5953Z" fill="#C1694F"/>
<path d="M7.6875 26.6533V34.0953H8.6875L8.9905 26.6533H7.6875Z" fill="#DD551F"/>
<path d="M4.0205 26.1483L2.6875 34.0953H7.6875L8.4085 26.5073L4.0205 26.1483Z" fill="#FA743E"/>
<path d="M6.47493 20.3534C7.39793 19.4304 10.0329 17.3894 10.6899 16.7164C11.3479 16.0444 12.2199 16.8134 11.7579 17.6344C11.2959 18.4554 8.62893 21.4814 8.62893 21.4814C8.62893 21.4814 10.2189 21.9434 10.5779 22.3534C10.9369 22.7634 11.6039 25.4314 10.9879 25.8414C10.3719 26.2514 9.44893 25.9444 9.44893 25.9444C9.44893 25.9444 8.47593 28.3554 5.96193 28.2014C4.91793 28.1374 3.85893 27.2264 3.96093 25.6874C4.06393 24.1484 4.86493 22.7184 5.14093 21.8914C5.44893 20.9684 6.47493 20.3534 6.47493 20.3534Z" fill="#F7DECE"/>
<path d="M5.7887 18.8003C5.73929 18.8002 5.69015 18.7931 5.6427 18.7793C3.2137 18.0393 2.7837 15.2153 2.7667 15.0953C2.75305 14.9667 2.78976 14.8378 2.86913 14.7357C2.9485 14.6336 3.06435 14.5662 3.19235 14.5477C3.32036 14.5292 3.45055 14.561 3.5556 14.6364C3.66064 14.7119 3.73237 14.8251 3.7557 14.9523C3.7587 14.9753 4.1177 17.2683 5.9337 17.8213C6.04753 17.857 6.14488 17.9322 6.20823 18.0333C6.27159 18.1344 6.29679 18.2547 6.27932 18.3728C6.26184 18.4908 6.20282 18.5987 6.11288 18.6771C6.02295 18.7554 5.90799 18.7991 5.7887 18.8003ZM4.7117 20.8123C4.66155 20.8124 4.61167 20.805 4.5637 20.7903C1.0067 19.6883 0.0517002 15.6813 0.0127002 15.5113C-0.00200784 15.4473 -0.0039623 15.381 0.0069484 15.3162C0.0178591 15.2515 0.0414213 15.1895 0.0762897 15.1338C0.111158 15.0781 0.15665 15.0299 0.210168 14.9918C0.263685 14.9537 0.324181 14.9265 0.3882 14.9118C0.45222 14.8971 0.518509 14.8952 0.583284 14.9061C0.648059 14.917 0.71005 14.9406 0.765719 14.9754C0.821388 15.0103 0.869643 15.0558 0.907731 15.1093C0.945819 15.1628 0.972992 15.2233 0.9877 15.2873C0.9957 15.3233 1.8597 18.9053 4.8607 19.8353C4.9746 19.8711 5.07193 19.9465 5.13509 20.0478C5.19826 20.1491 5.22308 20.2697 5.20508 20.3877C5.18708 20.5057 5.12745 20.6134 5.03695 20.6913C4.94646 20.7692 4.83109 20.8121 4.7117 20.8123Z" fill="#5DADEC"/>
<path d="M34.6875 34.0953V32.0953C34.6875 30.504 34.0554 28.9779 32.9301 27.8527C31.8049 26.7275 30.2788 26.0953 28.6875 26.0953H14.6875C13.0962 26.0953 11.5701 26.7275 10.4449 27.8527C9.31964 28.9779 8.6875 30.504 8.6875 32.0953V34.0953H34.6875Z" fill="#FA743E"/>
<path d="M25.5913 0.357344C23.5713 -0.295656 18.8193 -0.117656 17.6313 1.42634C14.5423 1.48534 10.9183 4.27734 10.4433 7.96134C9.97328 11.6063 11.0213 13.2993 11.3943 16.0403C11.8163 19.1463 13.5623 20.1393 14.9583 20.5553C16.9663 23.2093 19.1013 23.0953 22.6853 23.0953C29.6853 23.0953 33.0193 18.4113 33.3143 10.4563C33.4923 5.64434 30.6693 2.00034 25.5913 0.357344Z" fill="#292F33"/>
<path d="M18.6855 21.0953V27.0953C18.6855 27.4893 18.7631 27.8794 18.9139 28.2434C19.0647 28.6074 19.2857 28.9381 19.5642 29.2167C19.8428 29.4952 20.1735 29.7162 20.5375 29.867C20.9015 30.0177 21.2916 30.0953 21.6855 30.0953C22.0795 30.0953 22.4696 30.0177 22.8336 29.867C23.1976 29.7162 23.5283 29.4952 23.8069 29.2167C24.0854 28.9381 24.3064 28.6074 24.4572 28.2434C24.6079 27.8794 24.6855 27.4893 24.6855 27.0953V21.0953H18.6855Z" fill="#F7DECE"/>
<path d="M18.2051 24.0903C19.2631 25.2973 20.2541 25.6003 21.6821 25.6003C23.1081 25.6003 24.1081 25.2963 25.1671 24.0903V20.5753H18.2061V24.0903H18.2051Z" fill="#EEC2AD"/>
<path d="M29.5943 10.7964C28.9173 9.85836 28.0493 9.10336 26.1483 8.83636C26.8613 9.16336 27.5443 10.2914 27.6333 10.9154C27.7223 11.5394 27.8113 12.0444 27.2473 11.4204C24.9863 8.92136 22.5243 9.90536 20.0843 8.37936C18.3803 7.31336 17.8613 6.13336 17.8613 6.13336C17.8613 6.13336 17.6533 7.70736 15.0693 9.31136C14.3203 9.77636 13.4263 10.8114 12.9303 12.3414C12.5743 13.4404 12.6853 14.4204 12.6853 16.0954C12.6853 20.9844 16.7143 25.0954 21.6853 25.0954C26.6563 25.0954 30.6853 20.9484 30.6853 16.0954C30.6853 13.0544 30.3663 11.8664 29.5943 10.7964Z" fill="#F7DECE"/>
<path d="M21.6872 21.8974C18.9332 21.8974 18.0872 21.1924 17.9462 21.0494C17.8838 20.9901 17.8337 20.9192 17.7987 20.8406C17.7638 20.762 17.7446 20.6773 17.7424 20.5913C17.7379 20.4177 17.8026 20.2493 17.9222 20.1234C18.0418 19.9974 18.2066 19.9241 18.3802 19.9196C18.5539 19.9151 18.7222 19.9797 18.8482 20.0994C18.9002 20.1364 19.5692 20.5864 21.6872 20.5864C23.8872 20.5864 24.5232 20.1014 24.5292 20.0964C24.5896 20.0365 24.6614 19.9892 24.7403 19.9575C24.8193 19.9258 24.9038 19.9101 24.9888 19.9115C25.0739 19.9129 25.1579 19.9313 25.2357 19.9656C25.3136 20 25.3838 20.0495 25.4422 20.1114C25.5633 20.2383 25.6298 20.4078 25.6271 20.5832C25.6245 20.7587 25.5531 20.9261 25.4282 21.0494C25.2872 21.1924 24.4412 21.8974 21.6872 21.8974Z" fill="#C1694F"/>
<path d="M22.6855 18.5953H20.6855C20.5529 18.5953 20.4258 18.5427 20.332 18.4489C20.2382 18.3551 20.1855 18.2279 20.1855 18.0953C20.1855 17.9627 20.2382 17.8356 20.332 17.7418C20.4258 17.648 20.5529 17.5953 20.6855 17.5953H22.6855C22.8182 17.5953 22.9453 17.648 23.0391 17.7418C23.1329 17.8356 23.1855 17.9627 23.1855 18.0953C23.1855 18.2279 23.1329 18.3551 23.0391 18.4489C22.9453 18.5427 22.8182 18.5953 22.6855 18.5953Z" fill="#C1694F"/>
<path d="M7.6875 26.6533V34.0953H8.6875L8.9905 26.6533H7.6875Z" fill="#DD551F"/>
<path d="M4.0205 26.1483L2.6875 34.0953H7.6875L8.4085 26.5073L4.0205 26.1483Z" fill="#FA743E"/>
<path d="M6.47493 20.3534C7.39793 19.4304 10.0329 17.3894 10.6899 16.7164C11.3479 16.0444 12.2199 16.8134 11.7579 17.6344C11.2959 18.4554 8.62893 21.4814 8.62893 21.4814C8.62893 21.4814 10.2189 21.9434 10.5779 22.3534C10.9369 22.7634 11.6039 25.4314 10.9879 25.8414C10.3719 26.2514 9.44893 25.9444 9.44893 25.9444C9.44893 25.9444 8.47593 28.3554 5.96193 28.2014C4.91793 28.1374 3.85893 27.2264 3.96093 25.6874C4.06393 24.1484 4.86493 22.7184 5.14093 21.8914C5.44893 20.9684 6.47493 20.3534 6.47493 20.3534Z" fill="#F7DECE"/>
<path d="M5.7887 18.8003C5.73929 18.8002 5.69015 18.7931 5.6427 18.7793C3.2137 18.0393 2.7837 15.2153 2.7667 15.0953C2.75305 14.9667 2.78976 14.8378 2.86913 14.7357C2.9485 14.6336 3.06435 14.5662 3.19235 14.5477C3.32036 14.5292 3.45055 14.561 3.5556 14.6364C3.66064 14.7119 3.73237 14.8251 3.7557 14.9523C3.7587 14.9753 4.1177 17.2683 5.9337 17.8213C6.04753 17.857 6.14488 17.9322 6.20823 18.0333C6.27159 18.1344 6.29679 18.2547 6.27932 18.3728C6.26184 18.4908 6.20282 18.5987 6.11288 18.6771C6.02295 18.7554 5.90799 18.7991 5.7887 18.8003ZM4.7117 20.8123C4.66155 20.8124 4.61167 20.805 4.5637 20.7903C1.0067 19.6883 0.0517002 15.6813 0.0127002 15.5113C-0.00200784 15.4473 -0.0039623 15.381 0.0069484 15.3162C0.0178591 15.2515 0.0414213 15.1895 0.0762897 15.1338C0.111158 15.0781 0.15665 15.0299 0.210168 14.9918C0.263685 14.9537 0.324181 14.9265 0.3882 14.9118C0.45222 14.8971 0.518509 14.8952 0.583284 14.9061C0.648059 14.917 0.71005 14.9406 0.765719 14.9754C0.821388 15.0103 0.869643 15.0558 0.907731 15.1093C0.945819 15.1628 0.972992 15.2233 0.9877 15.2873C0.9957 15.3233 1.8597 18.9053 4.8607 19.8353C4.9746 19.8711 5.07193 19.9465 5.13509 20.0478C5.19826 20.1491 5.22308 20.2697 5.20508 20.3877C5.18708 20.5057 5.12745 20.6134 5.03695 20.6913C4.94646 20.7692 4.83109 20.8121 4.7117 20.8123Z" fill="#5DADEC"/>
<path d="M34.6875 34.0953V32.0953C34.6875 30.504 34.0554 28.9779 32.9301 27.8527C31.8049 26.7275 30.2788 26.0953 28.6875 26.0953H14.6875C13.0962 26.0953 11.5701 26.7275 10.4449 27.8527C9.31964 28.9779 8.6875 30.504 8.6875 32.0953V34.0953H34.6875Z" fill="#FA743E"/>
<path d="M25.5913 0.357344C23.5713 -0.295656 18.8193 -0.117656 17.6313 1.42634C14.5423 1.48534 10.9183 4.27734 10.4433 7.96134C9.97328 11.6063 11.0213 13.2993 11.3943 16.0403C11.8163 19.1463 13.5623 20.1393 14.9583 20.5553C16.9663 23.2093 19.1013 23.0953 22.6853 23.0953C29.6853 23.0953 33.0193 18.4113 33.3143 10.4563C33.4923 5.64434 30.6693 2.00034 25.5913 0.357344Z" fill="#292F33"/>
<path d="M18.6855 21.0953V27.0953C18.6855 27.4893 18.7631 27.8794 18.9139 28.2434C19.0647 28.6074 19.2857 28.9381 19.5642 29.2167C19.8428 29.4952 20.1735 29.7162 20.5375 29.867C20.9015 30.0177 21.2916 30.0953 21.6855 30.0953C22.0795 30.0953 22.4696 30.0177 22.8336 29.867C23.1976 29.7162 23.5283 29.4952 23.8069 29.2167C24.0854 28.9381 24.3064 28.6074 24.4572 28.2434C24.6079 27.8794 24.6855 27.4893 24.6855 27.0953V21.0953H18.6855Z" fill="#F7DECE"/>
<path d="M18.2051 24.0903C19.2631 25.2973 20.2541 25.6003 21.6821 25.6003C23.1081 25.6003 24.1081 25.2963 25.1671 24.0903V20.5753H18.2061V24.0903H18.2051Z" fill="#EEC2AD"/>
<path d="M29.5943 10.7964C28.9173 9.85836 28.0493 9.10336 26.1483 8.83636C26.8613 9.16336 27.5443 10.2914 27.6333 10.9154C27.7223 11.5394 27.8113 12.0444 27.2473 11.4204C24.9863 8.92136 22.5243 9.90536 20.0843 8.37936C18.3803 7.31336 17.8613 6.13336 17.8613 6.13336C17.8613 6.13336 17.6533 7.70736 15.0693 9.31136C14.3203 9.77636 13.4263 10.8114 12.9303 12.3414C12.5743 13.4404 12.6853 14.4204 12.6853 16.0954C12.6853 20.9844 16.7143 25.0954 21.6853 25.0954C26.6563 25.0954 30.6853 20.9484 30.6853 16.0954C30.6853 13.0544 30.3663 11.8664 29.5943 10.7964Z" fill="#F7DECE"/>
<path d="M21.6872 21.8974C18.9332 21.8974 18.0872 21.1924 17.9462 21.0494C17.8838 20.9901 17.8337 20.9192 17.7987 20.8406C17.7638 20.762 17.7446 20.6773 17.7424 20.5913C17.7379 20.4177 17.8026 20.2493 17.9222 20.1234C18.0418 19.9974 18.2066 19.9241 18.3802 19.9196C18.5539 19.9151 18.7222 19.9797 18.8482 20.0994C18.9002 20.1364 19.5692 20.5864 21.6872 20.5864C23.8872 20.5864 24.5232 20.1014 24.5292 20.0964C24.5896 20.0365 24.6614 19.9892 24.7403 19.9575C24.8193 19.9258 24.9038 19.9101 24.9888 19.9115C25.0739 19.9129 25.1579 19.9313 25.2357 19.9656C25.3136 20 25.3838 20.0495 25.4422 20.1114C25.5633 20.2383 25.6298 20.4078 25.6271 20.5832C25.6245 20.7587 25.5531 20.9261 25.4282 21.0494C25.2872 21.1924 24.4412 21.8974 21.6872 21.8974Z" fill="#C1694F"/>
<path d="M22.6855 18.5953H20.6855C20.5529 18.5953 20.4258 18.5427 20.332 18.4489C20.2382 18.3551 20.1855 18.2279 20.1855 18.0953C20.1855 17.9627 20.2382 17.8356 20.332 17.7418C20.4258 17.648 20.5529 17.5953 20.6855 17.5953H22.6855C22.8182 17.5953 22.9453 17.648 23.0391 17.7418C23.1329 17.8356 23.1855 17.9627 23.1855 18.0953C23.1855 18.2279 23.1329 18.3551 23.0391 18.4489C22.9453 18.5427 22.8182 18.5953 22.6855 18.5953Z" fill="#C1694F"/>
<path d="M7.6875 26.6533V34.0953H8.6875L8.9905 26.6533H7.6875Z" fill="#DD551F"/>
<path d="M4.0205 26.1483L2.6875 34.0953H7.6875L8.4085 26.5073L4.0205 26.1483Z" fill="#FA743E"/>
<path d="M6.47493 20.3534C7.39793 19.4304 10.0329 17.3894 10.6899 16.7164C11.3479 16.0444 12.2199 16.8134 11.7579 17.6344C11.2959 18.4554 8.62893 21.4814 8.62893 21.4814C8.62893 21.4814 10.2189 21.9434 10.5779 22.3534C10.9369 22.7634 11.6039 25.4314 10.9879 25.8414C10.3719 26.2514 9.44893 25.9444 9.44893 25.9444C9.44893 25.9444 8.47593 28.3554 5.96193 28.2014C4.91793 28.1374 3.85893 27.2264 3.96093 25.6874C4.06393 24.1484 4.86493 22.7184 5.14093 21.8914C5.44893 20.9684 6.47493 20.3534 6.47493 20.3534Z" fill="#F7DECE"/>
<path d="M5.7887 18.8003C5.73929 18.8002 5.69015 18.7931 5.6427 18.7793C3.2137 18.0393 2.7837 15.2153 2.7667 15.0953C2.75305 14.9667 2.78976 14.8378 2.86913 14.7357C2.9485 14.6336 3.06435 14.5662 3.19235 14.5477C3.32036 14.5292 3.45055 14.561 3.5556 14.6364C3.66064 14.7119 3.73237 14.8251 3.7557 14.9523C3.7587 14.9753 4.1177 17.2683 5.9337 17.8213C6.04753 17.857 6.14488 17.9322 6.20823 18.0333C6.27159 18.1344 6.29679 18.2547 6.27932 18.3728C6.26184 18.4908 6.20282 18.5987 6.11288 18.6771C6.02295 18.7554 5.90799 18.7991 5.7887 18.8003ZM4.7117 20.8123C4.66155 20.8124 4.61167 20.805 4.5637 20.7903C1.0067 19.6883 0.0517002 15.6813 0.0127002 15.5113C-0.00200784 15.4473 -0.0039623 15.381 0.0069484 15.3162C0.0178591 15.2515 0.0414213 15.1895 0.0762897 15.1338C0.111158 15.0781 0.15665 15.0299 0.210168 14.9918C0.263685 14.9537 0.324181 14.9265 0.3882 14.9118C0.45222 14.8971 0.518509 14.8952 0.583284 14.9061C0.648059 14.917 0.71005 14.9406 0.765719 14.9754C0.821388 15.0103 0.869643 15.0558 0.907731 15.1093C0.945819 15.1628 0.972992 15.2233 0.9877 15.2873C0.9957 15.3233 1.8597 18.9053 4.8607 19.8353C4.9746 19.8711 5.07193 19.9465 5.13509 20.0478C5.19826 20.1491 5.22308 20.2697 5.20508 20.3877C5.18708 20.5057 5.12745 20.6134 5.03695 20.6913C4.94646 20.7692 4.83109 20.8121 4.7117 20.8123Z" fill="#5DADEC"/>
<path d="M34.6875 34.0953V32.0953C34.6875 30.504 34.0554 28.9779 32.9301 27.8527C31.8049 26.7275 30.2788 26.0953 28.6875 26.0953H14.6875C13.0962 26.0953 11.5701 26.7275 10.4449 27.8527C9.31964 28.9779 8.6875 30.504 8.6875 32.0953V34.0953H34.6875Z" fill="#FA743E"/>
<path d="M25.5913 0.357344C23.5713 -0.295656 18.8193 -0.117656 17.6313 1.42634C14.5423 1.48534 10.9183 4.27734 10.4433 7.96134C9.97328 11.6063 11.0213 13.2993 11.3943 16.0403C11.8163 19.1463 13.5623 20.1393 14.9583 20.5553C16.9663 23.2093 19.1013 23.0953 22.6853 23.0953C29.6853 23.0953 33.0193 18.4113 33.3143 10.4563C33.4923 5.64434 30.6693 2.00034 25.5913 0.357344Z" fill="#292F33"/>
<path d="M18.6855 21.0953V27.0953C18.6855 27.4893 18.7631 27.8794 18.9139 28.2434C19.0647 28.6074 19.2857 28.9381 19.5642 29.2167C19.8428 29.4952 20.1735 29.7162 20.5375 29.867C20.9015 30.0177 21.2916 30.0953 21.6855 30.0953C22.0795 30.0953 22.4696 30.0177 22.8336 29.867C23.1976 29.7162 23.5283 29.4952 23.8069 29.2167C24.0854 28.9381 24.3064 28.6074 24.4572 28.2434C24.6079 27.8794 24.6855 27.4893 24.6855 27.0953V21.0953H18.6855Z" fill="#F7DECE"/>
<path d="M18.2051 24.0903C19.2631 25.2973 20.2541 25.6003 21.6821 25.6003C23.1081 25.6003 24.1081 25.2963 25.1671 24.0903V20.5753H18.2061V24.0903H18.2051Z" fill="#EEC2AD"/>
<path d="M29.5943 10.7964C28.9173 9.85836 28.0493 9.10336 26.1483 8.83636C26.8613 9.16336 27.5443 10.2914 27.6333 10.9154C27.7223 11.5394 27.8113 12.0444 27.2473 11.4204C24.9863 8.92136 22.5243 9.90536 20.0843 8.37936C18.3803 7.31336 17.8613 6.13336 17.8613 6.13336C17.8613 6.13336 17.6533 7.70736 15.0693 9.31136C14.3203 9.77636 13.4263 10.8114 12.9303 12.3414C12.5743 13.4404 12.6853 14.4204 12.6853 16.0954C12.6853 20.9844 16.7143 25.0954 21.6853 25.0954C26.6563 25.0954 30.6853 20.9484 30.6853 16.0954C30.6853 13.0544 30.3663 11.8664 29.5943 10.7964Z" fill="#F7DECE"/>
<path d="M21.6872 21.8974C18.9332 21.8974 18.0872 21.1924 17.9462 21.0494C17.8838 20.9901 17.8337 20.9192 17.7987 20.8406C17.7638 20.762 17.7446 20.6773 17.7424 20.5913C17.7379 20.4177 17.8026 20.2493 17.9222 20.1234C18.0418 19.9974 18.2066 19.9241 18.3802 19.9196C18.5539 19.9151 18.7222 19.9797 18.8482 20.0994C18.9002 20.1364 19.5692 20.5864 21.6872 20.5864C23.8872 20.5864 24.5232 20.1014 24.5292 20.0964C24.5896 20.0365 24.6614 19.9892 24.7403 19.9575C24.8193 19.9258 24.9038 19.9101 24.9888 19.9115C25.0739 19.9129 25.1579 19.9313 25.2357 19.9656C25.3136 20 25.3838 20.0495 25.4422 20.1114C25.5633 20.2383 25.6298 20.4078 25.6271 20.5832C25.6245 20.7587 25.5531 20.9261 25.4282 21.0494C25.2872 21.1924 24.4412 21.8974 21.6872 21.8974Z" fill="#C1694F"/>
<path d="M22.6855 18.5953H20.6855C20.5529 18.5953 20.4258 18.5427 20.332 18.4489C20.2382 18.3551 20.1855 18.2279 20.1855 18.0953C20.1855 17.9627 20.2382 17.8356 20.332 17.7418C20.4258 17.648 20.5529 17.5953 20.6855 17.5953H22.6855C22.8182 17.5953 22.9453 17.648 23.0391 17.7418C23.1329 17.8356 23.1855 17.9627 23.1855 18.0953C23.1855 18.2279 23.1329 18.3551 23.0391 18.4489C22.9453 18.5427 22.8182 18.5953 22.6855 18.5953Z" fill="#C1694F"/>
<path d="M7.6875 26.6533V34.0953H8.6875L8.9905 26.6533H7.6875Z" fill="#DD551F"/>
<path d="M4.0205 26.1483L2.6875 34.0953H7.6875L8.4085 26.5073L4.0205 26.1483Z" fill="#FA743E"/>
<path d="M6.47493 20.3534C7.39793 19.4304 10.0329 17.3894 10.6899 16.7164C11.3479 16.0444 12.2199 16.8134 11.7579 17.6344C11.2959 18.4554 8.62893 21.4814 8.62893 21.4814C8.62893 21.4814 10.2189 21.9434 10.5779 22.3534C10.9369 22.7634 11.6039 25.4314 10.9879 25.8414C10.3719 26.2514 9.44893 25.9444 9.44893 25.9444C9.44893 25.9444 8.47593 28.3554 5.96193 28.2014C4.91793 28.1374 3.85893 27.2264 3.96093 25.6874C4.06393 24.1484 4.86493 22.7184 5.14093 21.8914C5.44893 20.9684 6.47493 20.3534 6.47493 20.3534Z" fill="#F7DECE"/>
<path d="M5.7887 18.8003C5.73929 18.8002 5.69015 18.7931 5.6427 18.7793C3.2137 18.0393 2.7837 15.2153 2.7667 15.0953C2.75305 14.9667 2.78976 14.8378 2.86913 14.7357C2.9485 14.6336 3.06435 14.5662 3.19235 14.5477C3.32036 14.5292 3.45055 14.561 3.5556 14.6364C3.66064 14.7119 3.73237 14.8251 3.7557 14.9523C3.7587 14.9753 4.1177 17.2683 5.9337 17.8213C6.04753 17.857 6.14488 17.9322 6.20823 18.0333C6.27159 18.1344 6.29679 18.2547 6.27932 18.3728C6.26184 18.4908 6.20282 18.5987 6.11288 18.6771C6.02295 18.7554 5.90799 18.7991 5.7887 18.8003ZM4.7117 20.8123C4.66155 20.8124 4.61167 20.805 4.5637 20.7903C1.0067 19.6883 0.0517002 15.6813 0.0127002 15.5113C-0.00200784 15.4473 -0.0039623 15.381 0.0069484 15.3162C0.0178591 15.2515 0.0414213 15.1895 0.0762897 15.1338C0.111158 15.0781 0.15665 15.0299 0.210168 14.9918C0.263685 14.9537 0.324181 14.9265 0.3882 14.9118C0.45222 14.8971 0.518509 14.8952 0.583284 14.9061C0.648059 14.917 0.71005 14.9406 0.765719 14.9754C0.821388 15.0103 0.869643 15.0558 0.907731 15.1093C0.945819 15.1628 0.972992 15.2233 0.9877 15.2873C0.9957 15.3233 1.8597 18.9053 4.8607 19.8353C4.9746 19.8711 5.07193 19.9465 5.13509 20.0478C5.19826 20.1491 5.22308 20.2697 5.20508 20.3877C5.18708 20.5057 5.12745 20.6134 5.03695 20.6913C4.94646 20.7692 4.83109 20.8121 4.7117 20.8123Z" fill="#5DADEC"/>
<path d="M34.6875 34.0953V32.0953C34.6875 30.504 34.0554 28.9779 32.9301 27.8527C31.8049 26.7275 30.2788 26.0953 28.6875 26.0953H14.6875C13.0962 26.0953 11.5701 26.7275 10.4449 27.8527C9.31964 28.9779 8.6875 30.504 8.6875 32.0953V34.0953H34.6875Z" fill="#FA743E"/>
<path d="M25.5913 0.357344C23.5713 -0.295656 18.8193 -0.117656 17.6313 1.42634C14.5423 1.48534 10.9183 4.27734 10.4433 7.96134C9.97328 11.6063 11.0213 13.2993 11.3943 16.0403C11.8163 19.1463 13.5623 20.1393 14.9583 20.5553C16.9663 23.2093 19.1013 23.0953 22.6853 23.0953C29.6853 23.0953 33.0193 18.4113 33.3143 10.4563C33.4923 5.64434 30.6693 2.00034 25.5913 0.357344Z" fill="#292F33"/>
<path d="M18.6855 21.0953V27.0953C18.6855 27.4893 18.7631 27.8794 18.9139 28.2434C19.0647 28.6074 19.2857 28.9381 19.5642 29.2167C19.8428 29.4952 20.1735 29.7162 20.5375 29.867C20.9015 30.0177 21.2916 30.0953 21.6855 30.0953C22.0795 30.0953 22.4696 30.0177 22.8336 29.867C23.1976 29.7162 23.5283 29.4952 23.8069 29.2167C24.0854 28.9381 24.3064 28.6074 24.4572 28.2434C24.6079 27.8794 24.6855 27.4893 24.6855 27.0953V21.0953H18.6855Z" fill="#F7DECE"/>
<path d="M18.2051 24.0903C19.2631 25.2973 20.2541 25.6003 21.6821 25.6003C23.1081 25.6003 24.1081 25.2963 25.1671 24.0903V20.5753H18.2061V24.0903H18.2051Z" fill="#EEC2AD"/>
<path d="M29.5943 10.7964C28.9173 9.85836 28.0493 9.10336 26.1483 8.83636C26.8613 9.16336 27.5443 10.2914 27.6333 10.9154C27.7223 11.5394 27.8113 12.0444 27.2473 11.4204C24.9863 8.92136 22.5243 9.90536 20.0843 8.37936C18.3803 7.31336 17.8613 6.13336 17.8613 6.13336C17.8613 6.13336 17.6533 7.70736 15.0693 9.31136C14.3203 9.77636 13.4263 10.8114 12.9303 12.3414C12.5743 13.4404 12.6853 14.4204 12.6853 16.0954C12.6853 20.9844 16.7143 25.0954 21.6853 25.0954C26.6563 25.0954 30.6853 20.9484 30.6853 16.0954C30.6853 13.0544 30.3663 11.8664 29.5943 10.7964Z" fill="#F7DECE"/>
<path d="M21.6872 21.8974C18.9332 21.8974 18.0872 21.1924 17.9462 21.0494C17.8838 20.9901 17.8337 20.9192 17.7987 20.8406C17.7638 20.762 17.7446 20.6773 17.7424 20.5913C17.7379 20.4177 17.8026 20.2493 17.9222 20.1234C18.0418 19.9974 18.2066 19.9241 18.3802 19.9196C18.5539 19.9151 18.7222 19.9797 18.8482 20.0994C18.9002 20.1364 19.5692 20.5864 21.6872 20.5864C23.8872 20.5864 24.5232 20.1014 24.5292 20.0964C24.5896 20.0365 24.6614 19.9892 24.7403 19.9575C24.8193 19.9258 24.9038 19.9101 24.9888 19.9115C25.0739 19.9129 25.1579 19.9313 25.2357 19.9656C25.3136 20 25.3838 20.0495 25.4422 20.1114C25.5633 20.2383 25.6298 20.4078 25.6271 20.5832C25.6245 20.7587 25.5531 20.9261 25.4282 21.0494C25.2872 21.1924 24.4412 21.8974 21.6872 21.8974Z" fill="#C1694F"/>
<path d="M22.6855 18.5953H20.6855C20.5529 18.5953 20.4258 18.5427 20.332 18.4489C20.2382 18.3551 20.1855 18.2279 20.1855 18.0953C20.1855 17.9627 20.2382 17.8356 20.332 17.7418C20.4258 17.648 20.5529 17.5953 20.6855 17.5953H22.6855C22.8182 17.5953 22.9453 17.648 23.0391 17.7418C23.1329 17.8356 23.1855 17.9627 23.1855 18.0953C23.1855 18.2279 23.1329 18.3551 23.0391 18.4489C22.9453 18.5427 22.8182 18.5953 22.6855 18.5953Z" fill="#C1694F"/>
<path d="M7.6875 26.6533V34.0953H8.6875L8.9905 26.6533H7.6875Z" fill="#DD551F"/>
<path d="M4.0205 26.1483L2.6875 34.0953H7.6875L8.4085 26.5073L4.0205 26.1483Z" fill="#FA743E"/>
<path d="M6.47493 20.3534C7.39793 19.4304 10.0329 17.3894 10.6899 16.7164C11.3479 16.0444 12.2199 16.8134 11.7579 17.6344C11.2959 18.4554 8.62893 21.4814 8.62893 21.4814C8.62893 21.4814 10.2189 21.9434 10.5779 22.3534C10.9369 22.7634 11.6039 25.4314 10.9879 25.8414C10.3719 26.2514 9.44893 25.9444 9.44893 25.9444C9.44893 25.9444 8.47593 28.3554 5.96193 28.2014C4.91793 28.1374 3.85893 27.2264 3.96093 25.6874C4.06393 24.1484 4.86493 22.7184 5.14093 21.8914C5.44893 20.9684 6.47493 20.3534 6.47493 20.3534Z" fill="#F7DECE"/>
<path d="M5.7887 18.8003C5.73929 18.8002 5.69015 18.7931 5.6427 18.7793C3.2137 18.0393 2.7837 15.2153 2.7667 15.0953C2.75305 14.9667 2.78976 14.8378 2.86913 14.7357C2.9485 14.6336 3.06435 14.5662 3.19235 14.5477C3.32036 14.5292 3.45055 14.561 3.5556 14.6364C3.66064 14.7119 3.73237 14.8251 3.7557 14.9523C3.7587 14.9753 4.1177 17.2683 5.9337 17.8213C6.04753 17.857 6.14488 17.9322 6.20823 18.0333C6.27159 18.1344 6.29679 18.2547 6.27932 18.3728C6.26184 18.4908 6.20282 18.5987 6.11288 18.6771C6.02295 18.7554 5.90799 18.7991 5.7887 18.8003ZM4.7117 20.8123C4.66155 20.8124 4.61167 20.805 4.5637 20.7903C1.0067 19.6883 0.0517002 15.6813 0.0127002 15.5113C-0.00200784 15.4473 -0.0039623 15.381 0.0069484 15.3162C0.0178591 15.2515 0.0414213 15.1895 0.0762897 15.1338C0.111158 15.0781 0.15665 15.0299 0.210168 14.9918C0.263685 14.9537 0.324181 14.9265 0.3882 14.9118C0.45222 14.8971 0.518509 14.8952 0.583284 14.9061C0.648059 14.917 0.71005 14.9406 0.765719 14.9754C0.821388 15.0103 0.869643 15.0558 0.907731 15.1093C0.945819 15.1628 0.972992 15.2233 0.9877 15.2873C0.9957 15.3233 1.8597 18.9053 4.8607 19.8353C4.9746 19.8711 5.07193 19.9465 5.13509 20.0478C5.19826 20.1491 5.22308 20.2697 5.20508 20.3877C5.18708 20.5057 5.12745 20.6134 5.03695 20.6913C4.94646 20.7692 4.83109 20.8121 4.7117 20.8123Z" fill="#5DADEC"/>
</svg>
