<svg width="24" height="24" viewBox="0 0 24 24" fill="none" xmlns="http://www.w3.org/2000/svg">
<path d="M12 22.5C9.21523 22.5 6.54451 21.3938 4.57538 19.4246C2.60625 17.4555 1.5 14.7848 1.5 12C1.5 9.21523 2.60625 6.54451 4.57538 4.57538C6.54451 2.60625 9.21523 1.5 12 1.5C14.7848 1.5 17.4555 2.60625 19.4246 4.57538C21.3938 6.54451 22.5 9.21523 22.5 12C22.5 14.7848 21.3938 17.4555 19.4246 19.4246C17.4555 21.3938 14.7848 22.5 12 22.5ZM12 24C15.1826 24 18.2348 22.7357 20.4853 20.4853C22.7357 18.2348 24 15.1826 24 12C24 8.8174 22.7357 5.76516 20.4853 3.51472C18.2348 1.26428 15.1826 0 12 0C8.8174 0 5.76516 1.26428 3.51472 3.51472C1.26428 5.76516 0 8.8174 0 12C0 15.1826 1.26428 18.2348 3.51472 20.4853C5.76516 22.7357 8.8174 24 12 24V24Z" fill="black" fill-opacity="0.5"/>
<path d="M15.3435 7.58248C15.2208 7.51931 15.0831 7.49121 14.9455 7.50126C14.8079 7.51132 14.6757 7.55915 14.5635 7.63948L10.5 10.542V8.24998C10.5 8.05107 10.421 7.8603 10.2803 7.71965C10.1397 7.579 9.94891 7.49998 9.75 7.49998C9.55109 7.49998 9.36032 7.579 9.21967 7.71965C9.07902 7.8603 9 8.05107 9 8.24998V15.75C9 15.9489 9.07902 16.1397 9.21967 16.2803C9.36032 16.421 9.55109 16.5 9.75 16.5C9.94891 16.5 10.1397 16.421 10.2803 16.2803C10.421 16.1397 10.5 15.9489 10.5 15.75V13.458L14.565 16.3605C14.6771 16.4403 14.8091 16.4878 14.9464 16.4976C15.0837 16.5074 15.2211 16.4793 15.3435 16.4162C15.4659 16.3532 15.5685 16.2577 15.6402 16.1402C15.7119 16.0226 15.7499 15.8876 15.75 15.75V8.24998C15.7501 8.1121 15.7123 7.97685 15.6406 7.8591C15.5689 7.74134 15.4661 7.64563 15.3435 7.58248V7.58248Z" fill="black" fill-opacity="0.5"/>
</svg>
